<?xml version="1.0" encoding="utf-8"?>
<!-- Generator: Adobe Illustrator 22.0.1, SVG Export Plug-In . SVG Version: 6.00 Build 0)  -->
<svg version="1.1" id="圖層_1" xmlns="http://www.w3.org/2000/svg" xmlns:xlink="http://www.w3.org/1999/xlink" x="0px" y="0px"
	 viewBox="0 0 413.8 480.2" style="enable-background:new 0 0 413.8 480.2;" xml:space="preserve">
<style type="text/css">
	.st0{fill:none;stroke:#808080;stroke-width:0.75;stroke-miterlimit:10;}
</style>
<g>
	<g>
		<path class="st0" d="M180.9,32.1c0,0-26.5-8-54.8,3.5"/>
		<path class="st0" d="M127.2,32.5c0,0-9.9-19.9-32-3.1c0,0-2.7,1.8-2.7,13.3c0,0-19-9.3-27,10.2c0,0-0.9,5.3,0,12.4
			c0,0-23.9-5.3-23.9,21.2v5.3"/>
		<path class="st0" d="M46.1,117.4c6.2-20.3-3.5-25.6-3.5-25.6c-15-4.4-22.1,12.4-22.1,12.4c-6.2,30.1,1.8,46.8,1.8,46.8l6.2,48.6
			c5.3,46,20.3,93.7,20.3,93.7c10.6,23.9,10.6,69.8,10.6,69.8C61.1,376.4,62,394,62,394c6.2,29.2,25.6,52.1,25.6,52.1
			c26.5,30.1,57.5,11.5,57.5,11.5c40.7-26.5,29.2-102.5,29.2-102.5c0-17.7,3.5-41.5,3.5-41.5c-1.8-27.4,7.1-90.2,7.1-90.2l7.1-38
			c8-26.5,2.7-50.4,2.7-50.4l-5-25l-1.1-5.9c-1.8-8.8,0-21.2,0-21.2V67c-0.9-27.4-11.5-42.4-11.5-42.4s-22.1-27.4-45.1-5.3
			c0,0-7.1,13.3-6.2,29.2c0,0,0,21.2,8,38c-4.4-15-4.4-43.3-4.4-43.3c-2.7-27.4,21.2-30.1,21.2-30.1c38,0,34.5,53,34.5,53
			s-1.1,15.2,1.9,30.3c0,0-24.3,0.6-41.8-2"/>
		<path class="st0" d="M183.7,47.2c0,0-12-9.4-47.4-2.3"/>
		<path class="st0" d="M188.6,203.9c0,0-15.1-19.4-30.1-23.8c0,0-25.6,3.5-62.8,15.9c0,0-44.2,18.6-53.9,0.9c0,0-5.3-10.6-2.7-33.6
			l2.7-13.3l1.8-13.3l3.5-5.3l1.8-3.5l-1.8-7.1"/>
		<path class="st0" d="M191.5,187.7l-41.1-27c0,0-10.6-10.6-38.9,0c0,0-30.1,10.6-38.9,11.5H53.2c0,0-20.3,10.2-25.6,20.5"/>
		<path class="st0" d="M195.1,171.3c0,0-5.8,3.5-14.7-4.4c-8.8-8-29.2-16.8-40.7-20.3c0,0-8-4.4-32.7,0c0,0-17.7,10.6-34.5,14.1
			c-16.8,3.5-27.4,1.8-27.4,1.8s-16.7,2.4-20.3,9.6"/>
		<path class="st0" d="M196.4,158.3c0,0-2.7,3.3-15.9-2l-33.6-16.8c0,0-24.7-14.1-50.4-2.7l-22.1,8c0,0-17.7,3.5-32.7,5.3
			c0,0-7,2.3-18.5,8.2"/>
		<path class="st0" d="M196.4,144.6c0,0-15,3.7-26.5-5.1l-33.6-15.9h-8.8c0,0-25.6-6.2-30.9,1.8c0,0-9.7,5.3-22.1,2.7
			c0,0-6.2,10.6-30.9,8.8c0,0-13.3,15-20.3,14.1"/>
		<path class="st0" d="M139.5,13.6c0,0,6.5,18.9,4.7,43.7v29.2l3.5,39.8c0,0,6.2,33.6,1.8,40.7c0,0,1.8,5.3-9.7,9.7
			c0,0-20.3,0.9-38,9.7l-29.2,8c0,0-22.1,5.3-26.5-11.5c0,0-0.9-7.1,0-24.7l4.4-17.7l1.8-9.7c0,0,5.3-32.7,1.8-41.5l-0.9-8.8
			c0,0,0.6-12-3.3-12.6"/>
		<path class="st0" d="M134.5,91.8c0,0,2.7,3.5,1.8,31.8l2.7,17.7c0,0,4.4,17.7,2.7,23.9c0,0-34.5,6.2-57.5,16.8
			c0,0-25.6,7.1-30.9,0c0,0-4.4-8.8,0-25.6l4.4-15.9c0,0,7.1-31.8,2.7-48.6l-0.9-11.5c0,0-0.1-13.5-4.5-14.8"/>
		<path class="st0" d="M151.1,10.7c0,0,5.5,53.7,3.7,75.7l5.1,48.3c0,0,1.9,40-2.5,61.3c0,0,2.7,8-10.6,12.4l-23,10.6
			c0,0-6.2,0.9-22.1,0l-37.1,4.4c0,0-24.7,6.2-33.6-4.9"/>
		<path class="st0" d="M163,13.6c0,0-0.2,3.9,1.6,61.3c0,0-0.9,25.6,3.5,37.1l1.9,38.9c0,0,1.7,27.4-3.6,46c0,0-9.7,39.8-41.5,42.4
			c0,0-20.3-3.5-26.5-2.7c0,0-44.1,4.9-62.2,7.3"/>
		<path class="st0" d="M173.1,22.7l-4.1,0.1c0,0-17-9.7-27.5-1.8c0,0-7.9-1.8-7.9,26.5l2.7,27.4l1.8,23.9"/>
		<path class="st0" d="M193.7,120.9c0,0-32.7,4.4-66.3-29.2c0,0-4.4-3.5-2.7-18.6v-8l-1.8-7.1v-8v-5.3l-3.5-7.1
			c0,0-1.3-5.3,2.5-11.5"/>
		<path class="st0" d="M195.5,135.9c0,0-42.1-7.7-59-25.9c0,0-3.7-13.9-34.6-5.9c0,0-18.6,2.7-26.5,8.8"/>
		<path class="st0" d="M136.3,123.6c0,0-3.5-12.4-12.4-14.1c0,0-20.3-4.4-48.6,8.8v-12.4l-2.7-12.4c0,0,0-8.8,0-9.7
			c0-0.9,0.9-14.1-7.1-18.6"/>
		<path class="st0" d="M167.6,17.9c0,0,5.8,20,5.8,40.3v26.5l4.4,34.5c0,0,6.2,34.3,0,59.6c0,0,1.8,22.6-26.5,79.2"/>
		<path class="st0" d="M170.2,18.2c0,0,6.7,1.9,10.3,41.7c3.5,39.8,0,37.1,0,37.1l1.8,15c0,0,9.7,23.9,6.2,53.9c0,0-1.8,14.1-8,38.9
			c0,0-11.5,34.5-16.8,67.2c0,0,0,38.9,0,53.9v26.5c0,0,5.3,11.5,4.4,23c0,0,5.3,32.7-12.4,60.1c0,0-14.1,20.3-42.4,15.9
			c0,0-21.2,0.9-36.2-28.3c0,0-9.7-20.3-12.4-49.5l-2.7-5.3v-38.9c0,0-6.2-47.7-14.1-78.7c0,0-1.8-23.9,1.8-38
			c0,0,5.3-20.3,10.6-34.5c0,0,6.2-28.3,6.2-40.7s-0.9-10.6-0.9-10.6l0.9-8.8v-9.7l-1.8-7.1l1.8-7.1l-0.9-6.2l-0.9-9.7l-0.9-4.4
			v-8.6"/>
		<path class="st0" d="M175.8,381.7c0,0-3.3,46-20.9,63.6c0,0-18.6,17.7-39.8,12.4c0,0-19.3,3.1-39.2-28.9"/>
		<path class="st0" d="M178.9,278.5c0,0,1.7-21.5-42.5-17.9l-23-2.7c0,0-52.1-2.6-72.5,6.6"/>
		<path class="st0" d="M177.9,293.7c0,0,6.1-12.8-39-15.5c0,0-38.9-6.2-74.2,3.5L45.8,285"/>
		<path class="st0" d="M176,303c0,0-0.9-11.5-77.8-7.1c0,0-36.1,2.7-40.1,7.1c0,0-1.8,1.8-6.9,0"/>
		<path class="st0" d="M115.4,23.1c0,0,3.9,59.3,8,78.6c0,0,7.6,54.4,12,64.7l4.4,10.3c0,0,8.8,5.3,8,19.4c0,0,0.2,19.2,13.3,40.9
			c0,0,15.8,7.7,19.8,19.2"/>
		<path class="st0" d="M105.8,23.7c0,0,4,18.6,4,38c0,0,9.7,40.7,9.7,57.5l3.5,25.5l2.7,17.9l0.4,5.9c0,0,9.3,7.3,12.8,28.5
			l6.3,34.3c0,0,9.2,32.4,9,48.5l-0.2,30.3c0,0-2.7,30.9,2.7,52.1c0,0,6.2,42.4-4.4,67.2c0,0-15,14.1-38.9,12.4
			c0,0-30.1-4.4-35.4-30.1s-5.3-15.9-5.3-23L71,366.6v-38l-4.4-29.2c0,0-5.3-46-1.8-76c0,0,11.5-63.6,10.6-64.5
			c-0.9-0.9,0-30.1,0-30.1l4.4-20.3c0,0-4.4-30.1-8-36.2"/>
		<path class="st0" d="M99.9,26.3l2.8,37.1l3.5,8.8c0,0,8.8,42.4,7.1,51.3c0,0,1.2,23.5,5,34.7l3.8,13.9l2.5,6.5
			c0,0,8.3,24.6,7.8,36.4l2.7,21.9c0,0,5.8,48.4,6.2,58.1l0.4,31.7l3.5,47.7l-2.7,46l1,14.8c0,0-1,4.4,1.7,9.8v13.3"/>
		<path class="st0" d="M95.6,29c0,0,0.9,30.9,7.1,52.1c0,0,4.7,15.3,4.5,28c0,0-3.2,17.4,2.3,36.7l5.8,25.3c0,0,6.7,32,8.5,47.9
			l1.8,38.9l1.8,53c0,0,2.7,64.5,0,79.5c0,0-2,36.9,1.1,50.3l3,21.7"/>
		<path class="st0" d="M188.4,57.3c0,0-1.4,0.9-8.2,0l-38.6,3.5c0,0-12.4,3.9-15.5-2.5"/>
		<path class="st0" d="M188.4,65.2c0,0-1.9,8.9-33.2,10.3c0,0-25.1,0.4-27.8-4.9"/>
		<path class="st0" d="M189.3,75.8c0,0-2.7,11.5-44.2,10.6c0,0-12.4-0.8-13.7-5.3"/>
		<path class="st0" d="M133.6,86.5c41.5,15,54.4,0.1,54.4,0.1"/>
		<path class="st0" d="M185.4,220.7c0,0-12-23.8-27.9-25.5c0,0-15.7-3.4-36.2,6.7c0,0-14.2,3-23.1,3c0,0-26,7.3-31.6,7.2
			c0,0-25,4.3-30.3-7.2c0,0-0.8-4.2-5.3-17.1l1.9-21.9c0,0,2.6-17.5-1.9-29.9c0,0,1.8-7.1,7.1-7.1c0,0,6.5-28.8,0.2-37.8"/>
		<path class="st0" d="M87.2,41c0,0,5.7,54.8,8.4,64.3l2.8,30.7l4.7,27.7l6.5,28c0,0,4.6,23,3.7,29.2v109.6l-2.7,68.1l2.7,53.9
			l0.8,10.1"/>
		<path class="st0" d="M78,41c0,0,12.5,40.9,11.5,87.9l4.5,37.7l4.2,32.2l2.7,14.1v24.1l-0.9,81.1l-3.5,54.8l3.5,66.3l-0.2,17.6"/>
		<path class="st0" d="M72.3,43.7c0,0,9.6,45.8,11.2,65.1c1.6,19.3,0,61,0,61l0.7,50.9l-1.9,57.5l1.9,38.1l-1.8,51.3l1.8,33.6
			l2.7,16.8v28.3"/>
		<path class="st0" d="M169.9,425.9c0,0-10.6-15.9-29.2-3.5c0,0-21.9,13.4-54.3-6.5c0,0-15.4-9.2-17.2,0"/>
		<path class="st0" d="M172.7,411.7c0,0-1.9-16.8-40.7-4.4c0,0-9.7,7.1-47.7-6.2c0,0-19.4-6.5-19.8,1.6"/>
		<path class="st0" d="M174.1,395.6c0,0,0.1-9.5-29.9-4.7c0,0-28.2,4.9-48.5-1.3H61.9"/>
		<path class="st0" d="M175.8,380.1c0,0,8.2-8.1-30.7-5.5l-33.7,2.5H82.9c0,0-19.2,4.9-21.7,3"/>
		<path class="st0" d="M174.3,365.8c0,0,5-6.7-45.7-1.6L112,364L62,368.4"/>
		<path class="st0" d="M174.3,355.2c0,0,4.6-8.6-30.8-3.4l-14.8,0.9H97.8c0,0-27.8,1.6-34,5.1h-4.5"/>
		<path class="st0" d="M174.5,339.3c0,0-10-4.7-21-1.9c0,0-42.9,5.4-53.5,1.9l-29.2,3.2l-11.5,3"/>
		<path class="st0" d="M175.8,330.5c0,0,3.8-8.3-33.8-5.6l-28.7,2.5c0,0-43.3,0.3-49.5,2.9l-6.1,2.7"/>
		<path class="st0" d="M176.5,317.6c0,0,0.4-7.5-22.5-7.5h-26.5l-27.6,3.8H84l-14.8,3.7l-7.2,0.4h-6.5"/>
		<line class="st0" x1="183.6" y1="232.8" x2="156.5" y2="201.9"/>
		<line class="st0" x1="158.4" y1="180.1" x2="141.6" y2="165.1"/>
		<path class="st0" d="M190.9,116.1c0,0-44.8-8.7-55.4-19.6"/>
		<path class="st0" d="M125.7,43.7"/>
		<path class="st0" d="M101.8,104.1l-0.9-13.3l-2.7-16.8l-2.7-12.4l-1.8-14.1c-0.9-15,13.3-15.7,13.3-15.7c14.2-6,18.6,9.2,18.6,9.2
			"/>
		<polyline class="st0" points="94.3,42.3 100,42.3 124.4,37.7 127.2,32.5 		"/>
		<polyline class="st0" points="93.8,47.6 101.4,47.2 122.1,44.9 125.7,44 		"/>
		<polyline class="st0" points="94.3,50.7 95.6,52 100,52 108,52 117.5,51.4 125.7,47.6 		"/>
		<polyline class="st0" points="95.1,57.2 98.2,58.3 104.5,58.2 114.2,57.3 119.5,55.5 125.7,53.6 		"/>
		<polyline class="st0" points="95.1,59.7 98.4,60.5 105.3,60.8 114.2,59.9 122.1,58.2 127.4,56.4 		"/>
		<path class="st0" d="M98.8,77.2c0,0,5.9,4.9,25.7,0l3-1.3l1.7-2.1"/>
		<path class="st0" d="M146.9,93.5"/>
		<path class="st0" d="M189.3,110.3c0,0-48.6-5.3-60.1-20.3l0.7-13.5"/>
		<path class="st0" d="M195.5,152.7l-10.1-43c0,0-4.9-10.1,2.7-18"/>
		<path class="st0" d="M193.7,176.6c0,0-11.5,33.6-13.3,48.6c0,0-7.1,37.1-8,60.1l-2.7,24.7c0,0,2.7,42.4,2.7,49.5
			c0,0,1.8,30.1,1.8,36.2"/>
		<path class="st0" d="M31.1,137.7c3.5-5.3,13.3-1.8,13.3-1.8v-10.6c0,0,2.7-24.7-2.7-33.6"/>
		<path class="st0" d="M36.4,128.9l-1.8-6.2l0.9-21.2c0,0,5.3-3.5-2.7-9.7"/>
		<path class="st0" d="M24.9,151l2.7-8v-10.6c0,0,0.9-7.1,1.8-18.6c0,0,8.8-20.3-1.8-19.4"/>
		<path class="st0" d="M23.1,151v-13.3l1.8-5.3v-11.5c0,0-2.7-11.5,3.5-20.3c0,0,8.8-14.1,19.4,0.9"/>
		<path class="st0" d="M19.6,142.1l1.8-15c0,0,0.9-20.3,3.5-28.3c0,0,12.4-11.5,21.2-2.7"/>
		<path class="st0" d="M19.6,104.1c5.3,4.4,11.5,4.9,11.5,4.9c11.5-1.3,10.6,3.1,10.6,3.1s2.1,0.9,2.8,11.5"/>
		<path class="st0" d="M47.9,108.5c0,0-1.8-3.5-16.8-4.4c0,0-6.2-0.9-8-5.3"/>
		<path class="st0" d="M45.1,114.7l-3.3,8c-1.8,14.1-10.6,19.4-10.6,19.4s-5.3,8-9.7,6.2"/>
		<path class="st0" d="M40.8,128.9c0,0-1.5-6.9-12.3-6.1l-4-3.5c0,0-4.2-4.5-6.8-3.6"/>
		<path class="st0" d="M41.6,123.6c0,0-3.5-6.8-12.7-3.8c0,0-8.4-5-9.3-10.3"/>
		<path class="st0" d="M127.4,63.5c0,0-2.7,4.4-15.9,7.1c0,0-10.6,2.7-15-2.7"/>
		<path class="st0" d="M126.6,61.7c0,0-9.7,8.8-23,3.5c0,0-7.1,0-8-1.8"/>
		<path class="st0" d="M126.6,59.1c0,0-10.6,7.1-23.9,4.4c0,0-7.1-0.9-7.1-1.8"/>
		<path class="st0" d="M131,79.4c0,0-18.6,8-30.9,4.4"/>
		<path class="st0" d="M131.9,84.7c0,0-17.7,7.1-31.8,3.5"/>
		<path class="st0" d="M187.5,99.7c0,0-29.2,4.4-42.4-5.3c0,0-9.7-4.4-12.4-8c-3.5-4.8,8.8,8,8.8,8c18.6,13.3,47.7,10.6,47.7,10.6"
			/>
		<path class="st0" d="M131.9,95.3c0,0-8-3.5-15,0.9c0,0-7.1,1.8-14.1-1.8"/>
		<path class="st0" d="M127.4,67.9c0,0-8.8,10.6-26.5,6.2l-2.7-1.8"/>
		<path class="st0" d="M93,45.8c0,0-15.9-7.1-23.9,6.2c0,0-2.7,8-0.9,15"/>
		<path class="st0" d="M94.7,53.7c0,0-6.2-9.7-20.3-0.9c0,0-4.4,3.5-4.4,16.8"/>
		<path class="st0" d="M100.9,98.8c0,0-2.7-3.5-11.5,3.5c0,0-14.1,6.2-14.1,8"/>
		<path class="st0" d="M74.4,125.3c0,0-4.4-4.4-5.3-19.4s0.9-18.6-0.9-27.4l-2.7-13.3"/>
		<path class="st0" d="M40.8,113c0,0-15,0.9-17.7-3.5c0,0-1.8-2.7-3.5-1.8"/>
		<path class="st0" d="M69.1,67.9c0,0,2.7,13.3,1.8,28.3c0,0-0.9,17.7,4.4,22.1c0,0-14.1,19.4-27.4,10.6"/>
		<path class="st0" d="M72.6,86.5c0,0,0.9-15-14.1-11.5c0,0-14.1,0.9-13.3,17.7"/>
		<path class="st0" d="M72.6,75c0,0-10.6-9.7-23,1.8c0,0-3.5,0-6.2,15"/>
		<path class="st0" d="M70.9,71.4c0,0-11.5-8-23,3.5c0,0-6.2,7.1-5.3,15"/>
		<path class="st0" d="M70,68.8c0,0-15-7.1-24.7,6.2l-3.5,8"/>
		<path class="st0" d="M93.8,59.1c0,0-20.3,0.9-23,6.2"/>
		<path class="st0" d="M100.9,97.1c0,0-6.2-4.4-12.4,2.7c0,0-9.7,7.1-13.3,6.2"/>
		<path class="st0" d="M100.9,94.4c0,0-3.5-4.4-12.4,1.8c0,0-11.5,7.1-14.1,5.3"/>
		<path class="st0" d="M100.9,91.8c0,0-3.5-4.4-13.3,0.9c0,0-9.7,6.2-14.1,3.5"/>
		<path class="st0" d="M100,88.2c0,0-1.8-4.4-11.5,0c0,0-12.4,8-15.9,3.5"/>
		<path class="st0" d="M100,85.6c0,0-1.8-5.3-13.3,0c0,0-11.5,6.2-14.1,1.8"/>
		<path class="st0" d="M98.3,79.4c0,0,0-9.7-12.4-3.5c0,0-8,2.7-12.4,0"/>
		<path class="st0" d="M98.3,72.3c0,0,0-7.1-8-3.5c0,0-15,6.2-19.4,2.7"/>
		<path class="st0" d="M96.5,66.1c0,0-0.9-5.3-6.2-0.9c0,0-13.3,5.3-20.3,2.7"/>
		<path class="st0" d="M100,82c0,0-4.4-5.3-13.3,0c0,0-8.8,6.2-14.1,1.8"/>
		<path class="st0" d="M134.5,119.2c0,0-2.7-6.2-15-3.5l-12.4-0.9"/>
		<path class="st0" d="M107.1,113c0,0-22.1,8.8-33.6,6.2"/>
		<path class="st0" d="M72.6,82.9c0,0-5.3-8.8-24.7-0.9"/>
		<path class="st0" d="M66.4,93.5c0,0-16.8-4.4-21.2,0"/>
		<path class="st0" d="M74.4,105.9c0,0-8.8-14.1-28.3-9.7"/>
		<path class="st0" d="M72.6,87.3c0,0-11.5-8.8-26.5-1.8"/>
		<path class="st0" d="M75.3,113.9c0,0-13.3,19.4-26.5,12.4"/>
		<path class="st0" d="M72.6,117.4c0,0-20.3,11.5-24.7,5.3"/>
		<path class="st0" d="M46.1,116.9c13.3,6.6,30.5-4.4,30.5-4.4"/>
		<path class="st0" d="M47,113c0,0,9.7,6.2,28.3-1.8"/>
		<path class="st0" d="M47,108.5c0,0,17.7,3.5,22.1,3.5"/>
		<path class="st0" d="M74.4,110.3c0,0-16.8-9.7-26.5-3.5"/>
		<path class="st0" d="M75.3,107.7c0,0-15-10.6-27.4-4.4"/>
		<path class="st0" d="M71.8,90.9c0,0-2.7-4.4-12.4-1.8c0,0-9.7,3.5-14.1,0"/>
	</g>
</g>
<g>
	<g>
		<path class="st0" d="M290,35.6c-28.3-11.5-54.8-3.5-54.8-3.5"/>
		<path class="st0" d="M374.4,91.8v-5.3c0-26.5-23.9-21.2-23.9-21.2c0.9-7.1,0-12.4,0-12.4c-8-19.4-27-10.2-27-10.2
			c0-11.5-2.7-13.3-2.7-13.3c-22.1-16.8-32,3.1-32,3.1"/>
		<path class="st0" d="M271.2,94.4c-17.5,2.7-41.8,2-41.8,2c2.9-15.1,1.9-30.3,1.9-30.3s-3.5-53,34.5-53c0,0,23.9,2.7,21.2,30.1
			c0,0,0,28.3-4.4,43.3c8-16.8,8-38,8-38c0.9-15.9-6.2-29.2-6.2-29.2c-23-22.1-45.1,5.3-45.1,5.3s-10.6,15-11.5,42.4v15.9
			c0,0,1.8,12.4,0,21.2l-1.1,5.9l-5,25c0,0-5.3,23.9,2.7,50.4l7.1,38c0,0,8.8,62.8,7.1,90.2c0,0,3.5,23.9,3.5,41.5
			c0,0-11.5,76,29.2,102.5c0,0,30.9,18.6,57.5-11.5c0,0,19.4-23,25.6-52.1c0,0,0.9-17.7,2.7-30.9c0,0,0-46,10.6-69.8
			c0,0,15-47.7,20.3-93.7l6.2-48.6c0,0,8-16.8,1.8-46.8c0,0-7.1-16.8-22.1-12.4c0,0-9.7,5.3-3.5,25.6"/>
		<path class="st0" d="M279.7,44.9c-35.4-7.1-47.4,2.3-47.4,2.3"/>
		<path class="st0" d="M369,120.9l-1.8,7.1l1.8,3.5l3.5,5.3l1.8,13.3l2.7,13.3c2.7,23-2.7,33.6-2.7,33.6
			c-9.7,17.7-53.9-0.9-53.9-0.9c-37.1-12.4-62.8-15.9-62.8-15.9c-15,4.4-30.1,23.8-30.1,23.8"/>
		<path class="st0" d="M388.5,192.7c-5.3-10.3-25.6-20.5-25.6-20.5h-19.4c-8.8-0.9-38.9-11.5-38.9-11.5c-28.3-10.6-38.9,0-38.9,0
			l-41.1,27"/>
		<path class="st0" d="M391.2,172.1c-3.6-7.2-20.3-9.6-20.3-9.6s-10.6,1.8-27.4-1.8c-16.8-3.5-34.5-14.1-34.5-14.1
			c-24.7-4.4-32.7,0-32.7,0c-11.5,3.5-31.8,12.4-40.7,20.3c-8.8,8-14.7,4.4-14.7,4.4"/>
		<path class="st0" d="M392.9,158.3c-11.5-5.9-18.5-8.2-18.5-8.2c-15-1.8-32.7-5.3-32.7-5.3l-22.1-8c-25.6-11.5-50.4,2.7-50.4,2.7
			l-33.6,16.8c-13.3,5.3-15.9,2-15.9,2"/>
		<path class="st0" d="M393,151c-7.1,0.9-20.3-14.1-20.3-14.1c-24.7,1.8-30.9-8.8-30.9-8.8c-12.4,2.7-22.1-2.7-22.1-2.7
			c-5.3-8-30.9-1.8-30.9-1.8h-8.8l-33.6,15.9c-11.5,8.8-26.5,5.1-26.5,5.1"/>
		<path class="st0" d="M366.2,67.6c-3.9,0.6-3.3,12.6-3.3,12.6l-0.9,8.8c-3.5,8.8,1.8,41.5,1.8,41.5l1.8,9.7L370,158
			c0.9,17.7,0,24.7,0,24.7c-4.4,16.8-26.5,11.5-26.5,11.5l-29.2-8c-17.7-8.8-38-9.7-38-9.7c-11.5-4.4-9.7-9.7-9.7-9.7
			c-4.4-7.1,1.8-40.7,1.8-40.7l3.5-39.8V57.3c-1.8-24.7,4.7-43.7,4.7-43.7"/>
		<path class="st0" d="M361.2,65.5c-4.4,1.2-4.5,14.8-4.5,14.8l-0.9,11.5c-4.4,16.8,2.7,48.6,2.7,48.6l4.4,15.9
			c4.4,16.8,0,25.6,0,25.6c-5.3,7.1-30.9,0-30.9,0c-23-10.6-57.5-16.8-57.5-16.8c-1.8-6.2,2.7-23.9,2.7-23.9l2.7-17.7
			c-0.9-28.3,1.8-31.8,1.8-31.8"/>
		<path class="st0" d="M385,218.6c-8.9,11-33.6,4.9-33.6,4.9l-37.1-4.4c-15.9,0.9-22.1,0-22.1,0l-23-10.6
			c-13.3-4.4-10.6-12.4-10.6-12.4c-4.4-21.2-2.5-61.3-2.5-61.3l5.1-48.3c-1.8-22.1,3.7-75.7,3.7-75.7"/>
		<path class="st0" d="M380,244c-18.1-2.4-62.2-7.3-62.2-7.3c-6.2-0.9-26.5,2.7-26.5,2.7c-31.8-2.7-41.5-42.4-41.5-42.4
			c-5.3-18.6-3.6-46-3.6-46l1.9-38.9c4.4-11.5,3.5-37.1,3.5-37.1c1.8-57.5,1.6-61.3,1.6-61.3"/>
		<path class="st0" d="M278,98.8l1.8-23.9l2.7-27.4c0-28.3-7.9-26.5-7.9-26.5c-10.5-8-27.5,1.8-27.5,1.8l-4.1-0.1"/>
		<path class="st0" d="M294.1,26.3c3.8,6.2,2.5,11.5,2.5,11.5l-3.5,7.1v5.3v8l-1.8,7.1v8c1.8,15-2.7,18.6-2.7,18.6
			c-33.6,33.6-66.3,29.2-66.3,29.2"/>
		<path class="st0" d="M340.8,113c-8-6.2-26.5-8.8-26.5-8.8c-30.9-8-34.6,5.9-34.6,5.9c-17,18.2-59,25.9-59,25.9"/>
		<path class="st0" d="M350.5,65.2c-8,4.4-7.1,17.7-7.1,18.6c0,0.9,0,9.7,0,9.7l-2.7,12.4v12.4c-28.3-13.3-48.6-8.8-48.6-8.8
			c-8.8,1.8-12.4,14.1-12.4,14.1"/>
		<path class="st0" d="M264.8,257.9c-28.3-56.6-26.5-79.2-26.5-79.2c-6.2-25.3,0-59.6,0-59.6l4.4-34.5V58.2
			c0-20.3,5.8-40.3,5.8-40.3"/>
		<path class="st0" d="M352.3,65.5v8.6l-0.9,4.4l-0.9,9.7l-0.9,6.2l1.8,7.1l-1.8,7.1v9.7l0.9,8.8c0,0-0.9-1.8-0.9,10.6
			s6.2,40.7,6.2,40.7c5.3,14.1,10.6,34.5,10.6,34.5c3.5,14.1,1.8,38,1.8,38c-8,30.9-14.1,78.7-14.1,78.7v38.9l-2.7,5.3
			c-2.7,29.2-12.4,49.5-12.4,49.5c-15,29.2-36.2,28.3-36.2,28.3c-28.3,4.4-42.4-15.9-42.4-15.9c-17.7-27.4-12.4-60.1-12.4-60.1
			c-0.9-11.5,4.4-23,4.4-23V326c0-15,0-53.9,0-53.9c-5.3-32.7-16.8-67.2-16.8-67.2c-6.2-24.7-8-38.9-8-38.9
			c-3.5-30.1,6.2-53.9,6.2-53.9l1.8-15c0,0-3.5,2.7,0-37.1c3.5-39.8,10.3-41.7,10.3-41.7"/>
		<path class="st0" d="M340.3,428.8c-20,32-39.2,28.9-39.2,28.9c-21.2,5.3-39.8-12.4-39.8-12.4c-17.7-17.7-20.9-63.6-20.9-63.6"/>
		<path class="st0" d="M375.2,264.6c-20.3-9.2-72.5-6.6-72.5-6.6l-23,2.7c-44.2-3.5-42.5,17.9-42.5,17.9"/>
		<path class="st0" d="M370.3,285l-18.9-3.2c-35.4-9.7-74.2-3.5-74.2-3.5c-45.1,2.7-39,15.5-39,15.5"/>
		<path class="st0" d="M364.8,303c-5.1,1.8-6.9,0-6.9,0c-4.1-4.4-40.1-7.1-40.1-7.1c-76.9-4.4-77.8,7.1-77.8,7.1"/>
		<path class="st0" d="M235.2,256.2c4-11.5,19.8-19.2,19.8-19.2c13.2-21.7,13.3-40.9,13.3-40.9c-0.9-14.1,8-19.4,8-19.4l4.4-10.3
			c4.4-10.3,12-64.7,12-64.7c4.1-19.3,8-78.6,8-78.6"/>
		<path class="st0" d="M344.3,72.3c-3.5,6.2-8,36.2-8,36.2l4.4,20.3c0,0,0.9,29.2,0,30.1c-0.9,0.9,10.6,64.5,10.6,64.5
			c3.5,30.1-1.8,76-1.8,76l-4.4,29.2v38l-1.8,22.1c0,7.1,0-2.7-5.3,23c-5.3,25.6-35.4,30.1-35.4,30.1c-23.9,1.8-38.9-12.4-38.9-12.4
			c-10.6-24.7-4.4-67.2-4.4-67.2c5.3-21.2,2.7-52.1,2.7-52.1l-0.2-30.3c-0.2-16.2,9-48.5,9-48.5l6.3-34.3
			c3.5-21.2,12.8-28.5,12.8-28.5l0.4-5.9l2.7-17.9l3.5-25.5c0-16.8,9.7-57.5,9.7-57.5c0-19.4,4-38,4-38"/>
		<path class="st0" d="M270.9,458.5v-13.3c2.7-5.4,1.7-9.8,1.7-9.8l1-14.8l-2.7-46l3.5-47.7l0.4-31.7c0.4-9.6,6.2-58.1,6.2-58.1
			l2.7-21.9c-0.5-11.8,7.8-36.4,7.8-36.4l2.5-6.5l3.8-13.9c3.8-11.2,5-34.7,5-34.7c-1.8-8.8,7.1-51.3,7.1-51.3l3.5-8.8l2.8-37.1"/>
		<path class="st0" d="M284.6,462.5l3-21.7c3.2-13.4,1.1-50.3,1.1-50.3c-2.7-15,0-79.5,0-79.5l1.8-53l1.8-38.9
			c1.8-15.9,8.5-47.9,8.5-47.9l5.8-25.3c5.5-19.3,2.3-36.7,2.3-36.7c-0.2-12.7,4.5-28,4.5-28c6.2-21.2,7.1-52.1,7.1-52.1"/>
		<path class="st0" d="M290,58.3c-3.1,6.4-15.5,2.5-15.5,2.5l-38.6-3.5c-6.8,0.9-8.2,0-8.2,0"/>
		<path class="st0" d="M288.7,70.5c-2.7,5.3-27.8,4.9-27.8,4.9c-31.3-1.3-33.2-10.3-33.2-10.3"/>
		<path class="st0" d="M284.7,81.1c-1.3,4.5-13.7,5.3-13.7,5.3c-41.5,0.9-44.2-10.6-44.2-10.6"/>
		<path class="st0" d="M228,86.5c0,0,12.9,14.9,54.4-0.1"/>
		<path class="st0" d="M377.8,91c-6.3,9,0.2,37.8,0.2,37.8c5.3,0,7.1,7.1,7.1,7.1c-4.4,12.4-1.9,29.9-1.9,29.9l1.9,21.9
			c-4.5,13-5.3,17.1-5.3,17.1c-5.3,11.5-30.3,7.2-30.3,7.2c-5.6,0.2-31.6-7.2-31.6-7.2c-8.8,0-23.1-3-23.1-3
			c-20.4-10.1-36.2-6.7-36.2-6.7c-15.9,1.8-27.9,25.5-27.9,25.5"/>
		<path class="st0" d="M302,462.5l0.8-10.1l2.7-53.9l-2.7-68.1V220.8c-0.9-6.2,3.7-29.2,3.7-29.2l6.5-28l4.7-27.7l2.8-30.7
			c2.7-9.5,8.4-64.3,8.4-64.3"/>
		<path class="st0" d="M316.2,456.8l-0.2-17.6l3.5-66.3l-3.5-54.8l-0.9-81.1v-24.1l2.7-14.1l4.2-32.2l4.5-37.7
			c-1-46.9,11.5-87.9,11.5-87.9"/>
		<path class="st0" d="M329.2,446.2v-28.3l2.7-16.8l1.8-33.6l-1.8-51.3l1.9-38.1l-1.9-57.5l0.7-50.9c0,0-1.6-41.7,0-61
			s11.2-65.1,11.2-65.1"/>
		<path class="st0" d="M346.9,415.8c-1.9-9.2-17.2,0-17.2,0c-32.4,20-54.3,6.5-54.3,6.5c-18.6-12.4-29.2,3.5-29.2,3.5"/>
		<path class="st0" d="M351.7,402.7c-0.4-8-19.8-1.6-19.8-1.6c-38,13.3-47.7,6.2-47.7,6.2c-38.9-12.4-40.7,4.4-40.7,4.4"/>
		<path class="st0" d="M354.2,389.6h-33.9c-20.3,6.2-48.5,1.3-48.5,1.3c-30-4.9-29.9,4.7-29.9,4.7"/>
		<path class="st0" d="M354.9,380.1c-2.6,1.9-21.7-3-21.7-3h-28.5l-33.7-2.5c-38.9-2.7-30.7,5.5-30.7,5.5"/>
		<path class="st0" d="M354.1,368.4l-49.9-4.4l-16.6,0.2c-50.7-5.1-45.7,1.6-45.7,1.6"/>
		<path class="st0" d="M356.8,357.8h-4.5c-6.2-3.5-34-5.1-34-5.1h-30.8l-14.8-0.9c-35.4-5.2-30.8,3.4-30.8,3.4"/>
		<path class="st0" d="M356.7,345.4l-11.5-3l-29.2-3.2c-10.6,3.5-53.5-1.9-53.5-1.9c-11-2.7-21,1.9-21,1.9"/>
		<path class="st0" d="M358.4,333.1l-6.1-2.7c-6.2-2.7-49.5-2.9-49.5-2.9l-28.7-2.5c-37.6-2.7-33.8,5.6-33.8,5.6"/>
		<path class="st0" d="M360.4,318H354l-7.2-0.4l-14.8-3.7h-15.8l-27.6-3.8h-26.5c-23,0-22.5,7.5-22.5,7.5"/>
		<line class="st0" x1="259.6" y1="201.9" x2="232.4" y2="232.8"/>
		<line class="st0" x1="274.5" y1="165.1" x2="257.7" y2="180.1"/>
		<path class="st0" d="M280.6,96.5c-10.6,11-55.4,19.6-55.4,19.6"/>
		<path class="st0" d="M290.4,43.7"/>
		<path class="st0" d="M290.3,41c0,0,4.3-15.2,18.6-9.2c0,0,14.2,0.7,13.3,15.7l-1.8,14.1l-2.7,12.4l-2.7,16.8l-0.9,13.3"/>
		<polyline class="st0" points="288.9,32.5 291.7,37.7 316.1,42.3 321.8,42.3 		"/>
		<polyline class="st0" points="290.4,44 294,44.9 314.6,47.2 322.2,47.6 		"/>
		<polyline class="st0" points="290.4,47.6 298.6,51.4 308.1,52 316.1,52 320.5,52 321.8,50.7 		"/>
		<polyline class="st0" points="290.4,53.6 296.6,55.5 301.9,57.3 311.6,58.2 317.9,58.3 321,57.2 		"/>
		<polyline class="st0" points="288.7,56.4 294,58.2 301.9,59.9 310.8,60.8 317.6,60.5 321,59.7 		"/>
		<path class="st0" d="M286.9,73.7l1.7,2.1l3,1.3c19.8,4.9,25.7,0,25.7,0"/>
		<path class="st0" d="M269.2,93.5"/>
		<path class="st0" d="M286.2,76.5l0.7,13.5c-11.5,15-60.1,20.3-60.1,20.3"/>
		<path class="st0" d="M228,91.8c7.5,8,2.7,18,2.7,18l-10.1,43"/>
		<path class="st0" d="M241.8,395.8c0-6.2,1.8-36.2,1.8-36.2c0-7.1,2.7-49.5,2.7-49.5l-2.7-24.7c-0.9-23-8-60.1-8-60.1
			c-1.8-15-13.3-48.6-13.3-48.6"/>
		<path class="st0" d="M374.4,91.8c-5.3,8.8-2.7,33.6-2.7,33.6v10.6c0,0,9.7-3.5,13.3,1.8"/>
		<path class="st0" d="M383.2,91.8c-8,6.2-2.7,9.7-2.7,9.7l0.9,21.2l-1.8,6.2"/>
		<path class="st0" d="M388.5,94.4c-10.6-0.9-1.8,19.4-1.8,19.4c0.9,11.5,1.8,18.6,1.8,18.6V143l2.7,8"/>
		<path class="st0" d="M368.2,101.5c10.6-15,19.4-0.9,19.4-0.9c6.2,8.8,3.5,20.3,3.5,20.3v11.5l1.8,5.3V151"/>
		<path class="st0" d="M370,96.2c8.8-8.8,21.2,2.7,21.2,2.7c2.7,8,3.5,28.3,3.5,28.3l1.8,15"/>
		<path class="st0" d="M371.6,123.6c0.7-10.6,2.8-11.5,2.8-11.5s-0.9-4.4,10.6-3.1c0,0,6.2-0.4,11.5-4.9"/>
		<path class="st0" d="M393,98.8c-1.8,4.4-8,5.3-8,5.3c-15,0.9-16.8,4.4-16.8,4.4"/>
		<path class="st0" d="M394.6,148.3c-4.4,1.8-9.7-6.2-9.7-6.2s-8.8-5.3-10.6-19.4l-3.3-8"/>
		<path class="st0" d="M398.3,115.6c-2.7-0.9-6.8,3.6-6.8,3.6l-4,3.5c-10.8-0.8-12.3,6.1-12.3,6.1"/>
		<path class="st0" d="M396.5,109.4c-0.9,5.3-9.3,10.3-9.3,10.3c-9.2-3-12.7,3.8-12.7,3.8"/>
		<path class="st0" d="M319.6,67.9c-4.4,5.3-15,2.7-15,2.7c-13.3-2.7-15.9-7.1-15.9-7.1"/>
		<path class="st0" d="M320.5,63.5c-0.9,1.8-8,1.8-8,1.8c-13.3,5.3-23-3.5-23-3.5"/>
		<path class="st0" d="M320.5,61.7c0,0.9-7.1,1.8-7.1,1.8c-13.3,2.7-23.9-4.4-23.9-4.4"/>
		<path class="st0" d="M316.1,83.8c-12.4,3.5-30.9-4.4-30.9-4.4"/>
		<path class="st0" d="M316.1,88.2c-14.1,3.5-31.8-3.5-31.8-3.5"/>
		<path class="st0" d="M226.8,105c0,0,29.2,2.7,47.7-10.6c0,0,12.4-12.7,8.8-8c-2.7,3.5-12.4,8-12.4,8c-13.3,9.7-42.4,5.3-42.4,5.3"
			/>
		<path class="st0" d="M313.4,94.4c-7.1,3.5-14.1,1.8-14.1,1.8c-7.1-4.4-15-0.9-15-0.9"/>
		<path class="st0" d="M317.8,72.3l-2.7,1.8c-17.7,4.4-26.5-6.2-26.5-6.2"/>
		<path class="st0" d="M347.9,67c1.8-7.1-0.9-15-0.9-15c-8-13.3-23.9-6.2-23.9-6.2"/>
		<path class="st0" d="M346.1,69.7c0-13.3-4.4-16.8-4.4-16.8c-14.1-8.8-20.3,0.9-20.3,0.9"/>
		<path class="st0" d="M340.8,110.3c0-1.8-14.1-8-14.1-8c-8.8-7.1-11.5-3.5-11.5-3.5"/>
		<path class="st0" d="M350.5,65.2l-2.7,13.3c-1.8,8.8,0,12.4-0.9,27.4s-5.3,19.4-5.3,19.4"/>
		<path class="st0" d="M396.5,107.7c-1.8-0.9-3.5,1.8-3.5,1.8c-2.7,4.4-17.7,3.5-17.7,3.5"/>
		<path class="st0" d="M368.2,128.9c-13.3,8.8-27.4-10.6-27.4-10.6c5.3-4.4,4.4-22.1,4.4-22.1c-0.9-15,1.8-28.3,1.8-28.3"/>
		<path class="st0" d="M370.9,92.6c0.9-16.8-13.3-17.7-13.3-17.7c-15-3.5-14.1,11.5-14.1,11.5"/>
		<path class="st0" d="M372.6,91.8c-2.7-15-6.2-15-6.2-15c-12.4-11.5-23-1.8-23-1.8"/>
		<path class="st0" d="M373.5,90c0.9-8-5.3-15-5.3-15c-11.5-11.5-23-3.5-23-3.5"/>
		<path class="st0" d="M374.4,82.9l-3.5-8c-9.7-13.3-24.7-6.2-24.7-6.2"/>
		<path class="st0" d="M345.2,65.2c-2.7-5.3-23-6.2-23-6.2"/>
		<path class="st0" d="M340.8,105.9c-3.5,0.9-13.3-6.2-13.3-6.2c-6.2-7.1-12.4-2.7-12.4-2.7"/>
		<path class="st0" d="M341.7,101.5c-2.7,1.8-14.1-5.3-14.1-5.3c-8.8-6.2-12.4-1.8-12.4-1.8"/>
		<path class="st0" d="M342.6,96.2c-4.4,2.7-14.1-3.5-14.1-3.5c-9.7-5.3-13.3-0.9-13.3-0.9"/>
		<path class="st0" d="M343.5,91.8c-3.5,4.4-15.9-3.5-15.9-3.5c-9.7-4.4-11.5,0-11.5,0"/>
		<path class="st0" d="M343.5,87.3c-2.7,4.4-14.1-1.8-14.1-1.8c-11.5-5.3-13.3,0-13.3,0"/>
		<path class="st0" d="M342.6,75.8c-4.4,2.7-12.4,0-12.4,0c-12.4-6.2-12.4,3.5-12.4,3.5"/>
		<path class="st0" d="M345.2,71.4c-4.4,3.5-19.4-2.7-19.4-2.7c-8-3.5-8,3.5-8,3.5"/>
		<path class="st0" d="M346.1,67.9c-7.1,2.7-20.3-2.7-20.3-2.7c-5.3-4.4-6.2,0.9-6.2,0.9"/>
		<path class="st0" d="M343.5,83.8c-5.3,4.4-14.1-1.8-14.1-1.8c-8.8-5.3-13.3,0-13.3,0"/>
		<path class="st0" d="M309,114.7l-12.4,0.9c-12.4-2.7-15,3.5-15,3.5"/>
		<path class="st0" d="M342.6,119.2c-11.5,2.7-33.6-6.2-33.6-6.2"/>
		<path class="st0" d="M368.2,82c-19.4-8-24.7,0.9-24.7,0.9"/>
		<path class="st0" d="M370.9,93.5c-4.4-4.4-21.2,0-21.2,0"/>
		<path class="st0" d="M370,96.2c-19.4-4.4-28.3,9.7-28.3,9.7"/>
		<path class="st0" d="M370,85.6c-15-7.1-26.5,1.8-26.5,1.8"/>
		<path class="st0" d="M367.3,126.2c-13.3,7.1-26.5-12.4-26.5-12.4"/>
		<path class="st0" d="M368.2,122.7c-4.4,6.2-24.7-5.3-24.7-5.3"/>
		<path class="st0" d="M339.5,112.5c0,0,17.1,11,30.5,4.4"/>
		<path class="st0" d="M340.8,111.2c18.6,8,28.3,1.8,28.3,1.8"/>
		<path class="st0" d="M347,112.1c4.4,0,22.1-3.5,22.1-3.5"/>
		<path class="st0" d="M368.2,106.8c-9.7-6.2-26.5,3.5-26.5,3.5"/>
		<path class="st0" d="M368.2,103.2c-12.4-6.2-27.4,4.4-27.4,4.4"/>
		<path class="st0" d="M370.9,89.1c-4.4,3.5-14.1,0-14.1,0c-9.7-2.7-12.4,1.8-12.4,1.8"/>
	</g>
</g>
</svg>
